<svg xmlns="http://www.w3.org/2000/svg" viewBox="0 0 32 32">
  <rect width="32" height="32" rx="7" fill="#090b09"/>
  <path d="M4 7 C10 4 15 9 21 6 C24 5 27 5 29 7 V23 C25 21 22 22 18 24 C12 27 8 21 4 23 Z" fill="#f7f7f2"/>
  <path d="M4 7 C10 4 15 9 21 6 C24 5 27 5 29 7 V23 C25 21 22 22 18 24 C12 27 8 21 4 23 Z" fill="none" stroke="rgba(255,255,255,0.35)" stroke-width="0.8"/>
  <clipPath id="w">
    <path d="M4 7 C10 4 15 9 21 6 C24 5 27 5 29 7 V23 C25 21 22 22 18 24 C12 27 8 21 4 23 Z"/>
  </clipPath>
  <g clip-path="url(#w)">
    <rect x="4" y="0" width="8.4" height="32" fill="#006847"/>
    <rect x="12.4" y="0" width="8.4" height="32" fill="#f7f7f2"/>
    <rect x="20.8" y="0" width="8.4" height="32" fill="#ce1126"/>
    <circle cx="16.6" cy="15.7" r="2.7" fill="#9b6a23"/>
    <path d="M13.4 17.8 C15.3 20 18.6 20.2 20.1 17.8" fill="none" stroke="#0b8f4d" stroke-width="1.2" stroke-linecap="round"/>
  </g>
</svg>
