<svg xmlns="http://www.w3.org/2000/svg" viewBox="0 0 1200 630">
  <defs>
    <radialGradient id="greenHalo" cx="15%" cy="15%" r="70%">
      <stop offset="0%" stop-color="#006847" stop-opacity="0.65"/>
      <stop offset="100%" stop-color="#006847" stop-opacity="0"/>
    </radialGradient>
    <radialGradient id="redHalo" cx="90%" cy="85%" r="70%">
      <stop offset="0%" stop-color="#ce1126" stop-opacity="0.65"/>
      <stop offset="100%" stop-color="#ce1126" stop-opacity="0"/>
    </radialGradient>
    <filter id="softShadow" x="-30%" y="-35%" width="160%" height="180%">
      <feDropShadow dx="0" dy="22" stdDeviation="18" flood-color="#000000" flood-opacity="0.48"/>
    </filter>
    <clipPath id="flagWave">
      <path d="M132 126 C248 64 360 176 474 118 C540 84 602 88 664 122 L664 352 C592 322 528 326 456 366 C344 428 234 300 132 362 Z"/>
    </clipPath>
    <linearGradient id="clothShade" x1="0%" y1="0%" x2="100%" y2="100%">
      <stop offset="0%" stop-color="#ffffff" stop-opacity="0.20"/>
      <stop offset="52%" stop-color="#000000" stop-opacity="0"/>
      <stop offset="100%" stop-color="#000000" stop-opacity="0.24"/>
    </linearGradient>
  </defs>
  <rect width="1200" height="630" fill="#090b09"/>
  <rect width="1200" height="630" fill="url(#greenHalo)"/>
  <rect width="1200" height="630" fill="url(#redHalo)"/>
  <path d="M-50 520 L1250 100" stroke="#ffffff" stroke-opacity="0.05" stroke-width="80"/>
  <path d="M-20 120 L1220 520" stroke="#ffffff" stroke-opacity="0.04" stroke-width="36"/>

  <g transform="translate(0 30)" filter="url(#softShadow)">
    <path d="M82 96 L82 456" stroke="#ffffff" stroke-opacity="0.70" stroke-width="16" stroke-linecap="round"/>
    <path d="M62 456 H142" stroke="#ffffff" stroke-opacity="0.22" stroke-width="16" stroke-linecap="round"/>
    <g clip-path="url(#flagWave)">
      <rect x="132" y="54" width="177" height="360" fill="#006847"/>
      <rect x="309" y="54" width="177" height="360" fill="#f7f7f2"/>
      <rect x="486" y="54" width="178" height="360" fill="#ce1126"/>
      <path d="M132 126 C248 64 360 176 474 118 C540 84 602 88 664 122 V352 C592 322 528 326 456 366 C344 428 234 300 132 362 Z" fill="url(#clothShade)"/>
      <path d="M132 126 C248 64 360 176 474 118 C540 84 602 88 664 122" fill="none" stroke="#ffffff" stroke-opacity="0.48" stroke-width="7"/>
    </g>
    <g transform="translate(402 242)">
      <ellipse cx="0" cy="20" rx="64" ry="48" fill="#ffffff" opacity="0.30"/>
      <path d="M-78 28 C-52 78 -4 90 44 72" fill="none" stroke="#0b8f4d" stroke-width="12" stroke-linecap="round"/>
      <path d="M70 28 C48 78 0 90 -48 72" fill="none" stroke="#0b8f4d" stroke-width="12" stroke-linecap="round"/>
      <path d="M-40 -22 C-12 -58 44 -52 62 -14 C30 -26 8 -20 -14 2 Z" fill="#9b6a23"/>
      <path d="M-18 -2 C-68 -18 -84 24 -48 50 C-36 26 -20 14 6 12 Z" fill="#7a4a1a"/>
      <path d="M12 0 C64 -10 82 30 48 52 C34 28 20 16 -6 12 Z" fill="#c3922e"/>
      <circle cx="14" cy="-24" r="9" fill="#3a2410"/>
    </g>
  </g>

  <g transform="translate(730 230)" font-family="Impact, 'Bebas Neue', sans-serif">
    <text x="0" y="0" font-size="104" letter-spacing="-1" fill="#009a57">THAT</text>
    <text x="0" y="96" font-size="104" letter-spacing="-1" fill="#f8faf6">WAS</text>
    <text x="0" y="192" font-size="104" letter-spacing="-1" fill="#e51b35">EPIC</text>
    <text x="4" y="250" font-family="Inter, Arial, sans-serif" font-size="27" font-weight="700" fill="#f8faf6">Every link. One public hub.</text>
  </g>
</svg>
